M48
INCH
T01C0.0217
T02C0.0276
T03C0.0315
T04C0.0354
T05C0.0461
T06C0.0831
T07C0.25
%
T01
X+012992Y+018272
X+012992Y+019524
X+012992Y+013224
X+012992Y+011972
T02
X+012992Y+015248
X+012992Y+015748
X+012992Y+016248
T03
X+009843Y+024606
X+009843Y+026575
X+009843Y+016732
X+009843Y+014764
X+009843Y+006890
X+009843Y+004921
T04
X+020091Y+017504
X+020091Y+016504
X+020091Y+015504
X+020091Y+014504
X+020091Y+013504
X+016785Y+013754
X+015785Y+013754
T05
X+006102Y+025394
X+006102Y+015748
X+006102Y+006102
T06
X+004803Y+026693
X+007402Y+026693
X+007402Y+024094
X+004803Y+024094
X+004803Y+017047
X+007402Y+017047
X+007402Y+014449
X+004803Y+014449
X+004803Y+007402
X+007402Y+007402
X+007402Y+004803
X+004803Y+004803
T07
X+015748Y+024606
X+015748Y+006890
T00
M30
