G04 DipTrace 2.4.0.2*
%INanalog-bnc_v10_Bottom.GBL*%
%MOIN*%
%ADD14C,0.025*%
%ADD16C,0.0374*%
%ADD17C,0.0531*%
%ADD18C,0.0787*%
%ADD19C,0.1378*%
%ADD20R,0.0591X0.0591*%
%ADD21C,0.0591*%
%ADD22O,0.0787X0.0394*%
%FSLAX44Y44*%
G04*
G70*
G90*
G75*
G01*
%LNBottom*%
%LPD*%
X4205Y27067D2*
D14*
X21384D1*
X4205Y26819D2*
X21384D1*
X4205Y26570D2*
X21384D1*
X4205Y26321D2*
X21384D1*
X4205Y26073D2*
X5977D1*
X6227D2*
X14860D1*
X16637D2*
X21384D1*
X4205Y25824D2*
X5544D1*
X6660D2*
X14536D1*
X16961D2*
X21384D1*
X4205Y25575D2*
X5415D1*
X6789D2*
X14325D1*
X17172D2*
X21384D1*
X4205Y25326D2*
X5395D1*
X6809D2*
X14181D1*
X17313D2*
X21384D1*
X4205Y25078D2*
X5470D1*
X6734D2*
X9520D1*
X10168D2*
X14087D1*
X17406D2*
X21384D1*
X4205Y24829D2*
X5688D1*
X6516D2*
X9306D1*
X10379D2*
X14036D1*
X17461D2*
X21384D1*
X4205Y24580D2*
X9259D1*
X10426D2*
X14020D1*
X17473D2*
X21384D1*
X4205Y24332D2*
X9333D1*
X10352D2*
X14044D1*
X17453D2*
X21384D1*
X4205Y24083D2*
X9622D1*
X10063D2*
X14106D1*
X17391D2*
X21384D1*
X4205Y23834D2*
X14208D1*
X17289D2*
X21384D1*
X4205Y23586D2*
X14364D1*
X17133D2*
X21384D1*
X4205Y23337D2*
X14591D1*
X16906D2*
X21384D1*
X4205Y23088D2*
X14954D1*
X16539D2*
X21384D1*
X4205Y22840D2*
X21384D1*
X4205Y22591D2*
X21384D1*
X4205Y22342D2*
X21384D1*
X4205Y22094D2*
X21384D1*
X4205Y21845D2*
X21384D1*
X4205Y21596D2*
X21384D1*
X4205Y21347D2*
X21384D1*
X4205Y21099D2*
X21384D1*
X4205Y20850D2*
X21384D1*
X4205Y20601D2*
X21384D1*
X4205Y20353D2*
X21384D1*
X4205Y20104D2*
X21384D1*
X4205Y19855D2*
X21384D1*
X4205Y19607D2*
X21384D1*
X4205Y19358D2*
X21384D1*
X4205Y19109D2*
X21384D1*
X4205Y18861D2*
X21384D1*
X4205Y18612D2*
X12630D1*
X13356D2*
X21384D1*
X4205Y18363D2*
X12497D1*
X13488D2*
X21384D1*
X4205Y18115D2*
X12513D1*
X13469D2*
X21384D1*
X4205Y17866D2*
X12712D1*
X13273D2*
X19477D1*
X20703D2*
X21384D1*
X4205Y17617D2*
X19477D1*
X20703D2*
X21384D1*
X4205Y17368D2*
X19477D1*
X20703D2*
X21384D1*
X4205Y17120D2*
X19477D1*
X20703D2*
X21384D1*
X4205Y16871D2*
X19606D1*
X20574D2*
X21384D1*
X4205Y16622D2*
X12454D1*
X13527D2*
X19489D1*
X20691D2*
X21384D1*
X4205Y16374D2*
X5798D1*
X6410D2*
X12298D1*
X13688D2*
X19493D1*
X20688D2*
X21384D1*
X4205Y16125D2*
X5505D1*
X6699D2*
X12298D1*
X13688D2*
X19618D1*
X20566D2*
X21384D1*
X4205Y15876D2*
X5403D1*
X6801D2*
X12298D1*
X13688D2*
X19610D1*
X20570D2*
X21384D1*
X4205Y15628D2*
X5403D1*
X6801D2*
X12298D1*
X13688D2*
X19493D1*
X20691D2*
X21384D1*
X4205Y15379D2*
X5501D1*
X6707D2*
X12450D1*
X13535D2*
X19493D1*
X20691D2*
X21384D1*
X4205Y15130D2*
X5778D1*
X6426D2*
X9395D1*
X10289D2*
X19610D1*
X20570D2*
X21384D1*
X4205Y14882D2*
X9270D1*
X10414D2*
X19614D1*
X20566D2*
X21384D1*
X4205Y14633D2*
X9274D1*
X10410D2*
X19493D1*
X20688D2*
X21384D1*
X4205Y14384D2*
X9407D1*
X10277D2*
X19489D1*
X20691D2*
X21384D1*
X4205Y14135D2*
X15173D1*
X16398D2*
X19606D1*
X20574D2*
X21384D1*
X4205Y13887D2*
X15173D1*
X16398D2*
X21384D1*
X4205Y13638D2*
X15173D1*
X16398D2*
X21384D1*
X4205Y13389D2*
X15173D1*
X16398D2*
X21384D1*
X4205Y13141D2*
X21384D1*
X4205Y12892D2*
X21384D1*
X4205Y12643D2*
X21384D1*
X4205Y12395D2*
X12739D1*
X13242D2*
X21384D1*
X4205Y12146D2*
X12520D1*
X13465D2*
X21384D1*
X4205Y11897D2*
X12493D1*
X13492D2*
X21384D1*
X4205Y11649D2*
X12614D1*
X13371D2*
X21384D1*
X4205Y11400D2*
X21384D1*
X4205Y11151D2*
X21384D1*
X4205Y10903D2*
X21384D1*
X4205Y10654D2*
X21384D1*
X4205Y10405D2*
X21384D1*
X4205Y10156D2*
X21384D1*
X4205Y9908D2*
X21384D1*
X4205Y9659D2*
X21384D1*
X4205Y9410D2*
X21384D1*
X4205Y9162D2*
X21384D1*
X4205Y8913D2*
X21384D1*
X4205Y8664D2*
X21384D1*
X4205Y8416D2*
X14970D1*
X16523D2*
X21384D1*
X4205Y8167D2*
X14598D1*
X16895D2*
X21384D1*
X4205Y7918D2*
X14368D1*
X17129D2*
X21384D1*
X4205Y7670D2*
X14212D1*
X17285D2*
X21384D1*
X4205Y7421D2*
X14106D1*
X17391D2*
X21384D1*
X4205Y7172D2*
X14044D1*
X17449D2*
X21384D1*
X4205Y6924D2*
X14024D1*
X17473D2*
X21384D1*
X4205Y6675D2*
X5700D1*
X6504D2*
X14036D1*
X17461D2*
X21384D1*
X4205Y6426D2*
X5473D1*
X6731D2*
X14087D1*
X17410D2*
X21384D1*
X4205Y6177D2*
X5395D1*
X6809D2*
X14177D1*
X17316D2*
X21384D1*
X4205Y5929D2*
X5415D1*
X6793D2*
X14321D1*
X17176D2*
X21384D1*
X4205Y5680D2*
X5536D1*
X6668D2*
X14528D1*
X16969D2*
X21384D1*
X4205Y5431D2*
X5934D1*
X6270D2*
X9591D1*
X10094D2*
X14848D1*
X16648D2*
X21384D1*
X4205Y5183D2*
X9325D1*
X10359D2*
X21384D1*
X4205Y4934D2*
X9259D1*
X10426D2*
X21384D1*
X4205Y4685D2*
X9313D1*
X10375D2*
X21384D1*
X4205Y4437D2*
X9540D1*
X10145D2*
X21384D1*
X4205Y4188D2*
X21384D1*
X13455Y18148D2*
X13408Y18033D1*
X13332Y17934D1*
X13234Y17857D1*
X13119Y17809D1*
X12995Y17792D1*
X12872Y17808D1*
X12756Y17854D1*
X12656Y17929D1*
X12580Y18027D1*
X12531Y18142D1*
X12513Y18265D1*
X12527Y18389D1*
X12573Y18505D1*
X12648Y18605D1*
X12745Y18683D1*
X12859Y18732D1*
X12983Y18751D1*
X13106Y18737D1*
X13223Y18692D1*
X13323Y18618D1*
X13401Y18521D1*
X13452Y18407D1*
X13472Y18272D1*
X13455Y18148D1*
Y11849D2*
X13408Y11734D1*
X13332Y11635D1*
X13234Y11558D1*
X13119Y11510D1*
X12995Y11493D1*
X12872Y11508D1*
X12756Y11555D1*
X12656Y11630D1*
X12580Y11728D1*
X12531Y11843D1*
X12513Y11966D1*
X12527Y12090D1*
X12573Y12206D1*
X12648Y12306D1*
X12745Y12383D1*
X12859Y12433D1*
X12983Y12452D1*
X13106Y12438D1*
X13223Y12393D1*
X13323Y12319D1*
X13401Y12222D1*
X13452Y12108D1*
X13472Y11972D1*
X13455Y11849D1*
X10387Y24482D2*
X10346Y24365D1*
X10279Y24259D1*
X10191Y24171D1*
X10086Y24104D1*
X9968Y24062D1*
X9844Y24048D1*
X9720Y24062D1*
X9602Y24102D1*
X9497Y24168D1*
X9408Y24256D1*
X9341Y24361D1*
X9299Y24479D1*
X9284Y24603D1*
X9297Y24727D1*
X9338Y24845D1*
X9403Y24951D1*
X9491Y25040D1*
X9596Y25107D1*
X9713Y25149D1*
X9837Y25164D1*
X9961Y25152D1*
X10079Y25112D1*
X10186Y25047D1*
X10275Y24960D1*
X10342Y24855D1*
X10385Y24738D1*
X10401Y24606D1*
X10387Y24482D1*
Y14640D2*
X10346Y14522D1*
X10279Y14416D1*
X10191Y14328D1*
X10086Y14261D1*
X9968Y14220D1*
X9844Y14206D1*
X9720Y14219D1*
X9602Y14260D1*
X9497Y14326D1*
X9408Y14413D1*
X9341Y14519D1*
X9299Y14636D1*
X9284Y14760D1*
X9297Y14884D1*
X9338Y15002D1*
X9403Y15108D1*
X9491Y15197D1*
X9596Y15265D1*
X9713Y15307D1*
X9837Y15322D1*
X9961Y15309D1*
X10079Y15269D1*
X10186Y15204D1*
X10275Y15117D1*
X10342Y15012D1*
X10385Y14895D1*
X10401Y14764D1*
X10387Y14640D1*
Y4797D2*
X10346Y4680D1*
X10279Y4574D1*
X10191Y4485D1*
X10086Y4419D1*
X9968Y4377D1*
X9844Y4363D1*
X9720Y4377D1*
X9602Y4417D1*
X9497Y4483D1*
X9408Y4571D1*
X9341Y4676D1*
X9299Y4794D1*
X9284Y4918D1*
X9297Y5042D1*
X9338Y5160D1*
X9403Y5266D1*
X9491Y5355D1*
X9596Y5422D1*
X9713Y5464D1*
X9837Y5479D1*
X9961Y5467D1*
X10079Y5427D1*
X10186Y5362D1*
X10275Y5274D1*
X10342Y5170D1*
X10385Y5052D1*
X10401Y4921D1*
X10387Y4797D1*
X6777Y25269D2*
X6744Y25149D1*
X6689Y25037D1*
X6614Y24937D1*
X6523Y24852D1*
X6418Y24784D1*
X6302Y24737D1*
X6180Y24712D1*
X6055Y24709D1*
X5932Y24729D1*
X5814Y24771D1*
X5706Y24833D1*
X5611Y24914D1*
X5533Y25011D1*
X5473Y25121D1*
X5434Y25239D1*
X5417Y25363D1*
X5423Y25488D1*
X5451Y25609D1*
X5501Y25724D1*
X5571Y25827D1*
X5658Y25916D1*
X5760Y25988D1*
X5873Y26041D1*
X5994Y26071D1*
X6119Y26080D1*
X6243Y26065D1*
X6362Y26029D1*
X6473Y25971D1*
X6571Y25895D1*
X6654Y25801D1*
X6719Y25695D1*
X6763Y25578D1*
X6789Y25394D1*
X6777Y25269D1*
Y15624D2*
X6744Y15504D1*
X6689Y15391D1*
X6614Y15291D1*
X6523Y15206D1*
X6418Y15139D1*
X6302Y15092D1*
X6180Y15066D1*
X6055Y15063D1*
X5932Y15083D1*
X5814Y15125D1*
X5706Y15188D1*
X5611Y15269D1*
X5533Y15366D1*
X5473Y15475D1*
X5434Y15594D1*
X5417Y15717D1*
X5423Y15842D1*
X5451Y15964D1*
X5501Y16078D1*
X5571Y16182D1*
X5658Y16271D1*
X5760Y16343D1*
X5873Y16395D1*
X5994Y16426D1*
X6119Y16434D1*
X6243Y16420D1*
X6362Y16383D1*
X6473Y16326D1*
X6571Y16249D1*
X6654Y16156D1*
X6719Y16049D1*
X6763Y15932D1*
X6789Y15748D1*
X6777Y15624D1*
Y5978D2*
X6744Y5858D1*
X6689Y5746D1*
X6614Y5645D1*
X6523Y5560D1*
X6418Y5493D1*
X6302Y5446D1*
X6180Y5421D1*
X6055Y5418D1*
X5932Y5438D1*
X5814Y5480D1*
X5706Y5542D1*
X5611Y5623D1*
X5533Y5720D1*
X5473Y5829D1*
X5434Y5948D1*
X5417Y6072D1*
X5423Y6196D1*
X5451Y6318D1*
X5501Y6432D1*
X5571Y6536D1*
X5658Y6625D1*
X5760Y6697D1*
X5873Y6749D1*
X5994Y6780D1*
X6119Y6788D1*
X6243Y6774D1*
X6362Y6737D1*
X6473Y6680D1*
X6571Y6603D1*
X6654Y6510D1*
X6719Y6403D1*
X6763Y6286D1*
X6789Y6102D1*
X6777Y5978D1*
X19628Y18092D2*
X20678D1*
Y16916D1*
X20510D1*
X20594Y16807D1*
X20647Y16693D1*
X20674Y16572D1*
X20678Y16504D1*
X20665Y16380D1*
X20626Y16261D1*
X20563Y16154D1*
X20478Y16062D1*
X20398Y16006D1*
X20519Y15906D1*
X20594Y15807D1*
X20647Y15693D1*
X20674Y15572D1*
X20678Y15504D1*
X20665Y15380D1*
X20626Y15261D1*
X20563Y15154D1*
X20478Y15062D1*
X20398Y15006D1*
X20519Y14906D1*
X20594Y14807D1*
X20647Y14693D1*
X20674Y14572D1*
X20678Y14504D1*
X20665Y14380D1*
X20626Y14261D1*
X20563Y14154D1*
X20478Y14062D1*
X20376Y13990D1*
X20261Y13942D1*
X20139Y13918D1*
X20014Y13921D1*
X19893Y13950D1*
X19780Y14005D1*
X19682Y14081D1*
X19602Y14177D1*
X19544Y14288D1*
X19511Y14408D1*
X19503Y14532D1*
X19523Y14656D1*
X19568Y14772D1*
X19636Y14876D1*
X19725Y14964D1*
X19780Y15005D1*
X19682Y15081D1*
X19602Y15177D1*
X19544Y15288D1*
X19511Y15408D1*
X19503Y15532D1*
X19523Y15656D1*
X19568Y15772D1*
X19636Y15876D1*
X19725Y15964D1*
X19780Y16005D1*
X19682Y16081D1*
X19602Y16177D1*
X19544Y16288D1*
X19511Y16408D1*
X19503Y16532D1*
X19523Y16656D1*
X19568Y16772D1*
X19636Y16876D1*
X19678Y16918D1*
X19503Y16916D1*
Y18092D1*
X19628D1*
X12795Y15261D2*
X12690Y15270D1*
X12572Y15312D1*
X12470Y15383D1*
X12388Y15477D1*
X12333Y15589D1*
X12307Y15711D1*
X12314Y15835D1*
X12351Y15954D1*
X12378Y15997D1*
X12333Y16089D1*
X12307Y16211D1*
X12314Y16335D1*
X12351Y16454D1*
X12418Y16560D1*
X12509Y16645D1*
X12618Y16704D1*
X12739Y16734D1*
X12795Y16737D1*
X13258Y16732D1*
X13378Y16699D1*
X13486Y16637D1*
X13575Y16549D1*
X13638Y16442D1*
X13673Y16322D1*
X13678Y16248D1*
X13662Y16124D1*
X13609Y15999D1*
X13638Y15942D1*
X13673Y15822D1*
X13678Y15748D1*
X13662Y15624D1*
X13616Y15509D1*
X13542Y15409D1*
X13444Y15331D1*
X13331Y15280D1*
X13188Y15261D1*
X12795Y15259D1*
Y15263D1*
X15323Y14342D2*
X16373D1*
Y13166D1*
X15198D1*
Y14342D1*
X15323D1*
X17445Y24481D2*
X17408Y24234D1*
X17336Y23995D1*
X17229Y23769D1*
X17091Y23562D1*
X16923Y23376D1*
X16730Y23217D1*
X16516Y23089D1*
X16286Y22992D1*
X16044Y22931D1*
X15795Y22906D1*
X15546Y22917D1*
X15300Y22965D1*
X15065Y23048D1*
X14844Y23165D1*
X14643Y23313D1*
X14465Y23489D1*
X14316Y23689D1*
X14197Y23908D1*
X14111Y24143D1*
X14061Y24388D1*
X14047Y24637D1*
X14070Y24886D1*
X14129Y25129D1*
X14223Y25360D1*
X14350Y25575D1*
X14507Y25769D1*
X14690Y25939D1*
X14897Y26079D1*
X15122Y26188D1*
X15360Y26263D1*
X15607Y26302D1*
X15857Y26304D1*
X16104Y26270D1*
X16344Y26200D1*
X16571Y26095D1*
X16780Y25959D1*
X16967Y25793D1*
X17127Y25602D1*
X17258Y25389D1*
X17357Y25159D1*
X17420Y24918D1*
X17448Y24670D1*
X17445Y24481D1*
Y6765D2*
X17408Y6518D1*
X17336Y6279D1*
X17229Y6053D1*
X17091Y5845D1*
X16923Y5660D1*
X16730Y5501D1*
X16516Y5372D1*
X16286Y5276D1*
X16044Y5215D1*
X15795Y5189D1*
X15546Y5201D1*
X15300Y5249D1*
X15065Y5332D1*
X14844Y5449D1*
X14643Y5597D1*
X14465Y5772D1*
X14316Y5972D1*
X14197Y6192D1*
X14111Y6426D1*
X14061Y6671D1*
X14047Y6921D1*
X14070Y7169D1*
X14129Y7412D1*
X14223Y7643D1*
X14350Y7859D1*
X14507Y8053D1*
X14690Y8222D1*
X14897Y8363D1*
X15122Y8471D1*
X15360Y8546D1*
X15607Y8585D1*
X15857Y8587D1*
X16104Y8553D1*
X16344Y8483D1*
X16571Y8379D1*
X16780Y8242D1*
X16967Y8077D1*
X17127Y7885D1*
X17258Y7673D1*
X17357Y7443D1*
X17420Y7201D1*
X17448Y6953D1*
X17445Y6765D1*
X21285Y27316D2*
X4180D1*
Y4180D1*
X21410D1*
Y27316D1*
X21285D1*
D16*
X12992Y18272D3*
Y19524D3*
Y11972D3*
Y13224D3*
D17*
X9843Y24606D3*
Y26575D3*
Y14764D3*
Y16732D3*
Y4921D3*
Y6890D3*
D18*
X6102Y25394D3*
D19*
X4803Y26693D3*
X7402D3*
Y24094D3*
X4803D3*
D18*
X6102Y15748D3*
D19*
X4803Y17047D3*
X7402D3*
Y14449D3*
X4803D3*
D18*
X6102Y6102D3*
D19*
X4803Y7402D3*
X7402D3*
Y4803D3*
X4803D3*
D20*
X20091Y17504D3*
D21*
Y16504D3*
Y15504D3*
Y14504D3*
Y13504D3*
G36*
X13287Y15051D2*
X13386Y15150D1*
Y15346D1*
X13287Y15445D1*
X12697D1*
X12598Y15346D1*
Y15150D1*
X12697Y15051D1*
X13287D1*
G37*
D22*
X12992Y15748D3*
Y16248D3*
D20*
X15785Y13754D3*
D21*
X16785D3*
M02*
